# xmcd
#
# Track frame offsets:
#	150
#	13535
#	27787
#	40650
#	53170
#	67230
#	80260
#	93590
#	106900
#	120715
#	134580
#	145782
#	157780
#	171117
#	184062
#	198600
#	211682
#	225067
#	238332
#	252895
#	265935
#	278895
#
# Disc length: 3912 seconds
#
# Revision: 0
# Processed by: cddbd v1.5.1PL2 Copyright (c) Steve Scherf et al.
# Submitted via: EasyCDDAExtractor 8.2.3.1
#
DISCID=2a0f4616
DTITLE=Son Bonds - Charlie Pickett - Complete Works in Chronological Order 193
DTITLE=4-1941
DYEAR=1934
DGENRE=Blues
TTITLE0=all night long
TTITLE1=she walks like my women
TTITLE2=weary worried blues
TTITLE3=back and side blues
TTITLE4=i want to live so god can use me
TTITLE5=ain't that news
TTITLE6=give that old time religion
TTITLE7=in my father's house
TTITLE8=troble trouble blues
TTITLE9=tennesse woried blues
TTITLE10=i'll work up to you somebody
TTITLE11=old bachelor blues
TTITLE12=black gal swing
TTITLE13=get up and go
TTITLE14=every time my heart my beats
TTITLE15=80 highway blues
TTITLE16=a hard pill to swallow
TTITLE17=come back home little girl
TTITLE18=crazy 'bout my black gal
TTITLE19=trembling blues
TTITLE20=let me squezze your lemon
TTITLE21=down the higway
EXTD=
EXTT0=
EXTT1=
EXTT2=
EXTT3=
EXTT4=
EXTT5=
EXTT6=
EXTT7=
EXTT8=
EXTT9=
EXTT10=
EXTT11=
EXTT12=
EXTT13=
EXTT14=
EXTT15=
EXTT16=
EXTT17=
EXTT18=
EXTT19=
EXTT20=
EXTT21=
PLAYORDER=
